<svg width="145" height="145" viewBox="0 0 145 145" fill="none" xmlns="http://www.w3.org/2000/svg">
<path d="M142.734 72.5C142.734 111.298 111.287 142.734 72.5 142.734C33.7134 142.734 2.26562 111.298 2.26562 72.5C2.26562 33.7247 33.7134 2.26562 72.5 2.26562C111.287 2.26562 142.734 33.7247 142.734 72.5ZM72.5 86.6602C65.3052 86.6602 59.4727 92.4927 59.4727 99.6875C59.4727 106.882 65.3052 112.715 72.5 112.715C79.6948 112.715 85.5273 106.882 85.5273 99.6875C85.5273 92.4927 79.6948 86.6602 72.5 86.6602ZM60.1317 39.8337L62.2325 78.3493C62.3307 80.1516 63.821 81.5625 65.6258 81.5625H79.3742C81.179 81.5625 82.6693 80.1516 82.7675 78.3493L84.8683 39.8337C84.9745 37.8869 83.4246 36.25 81.475 36.25H63.5247C61.5752 36.25 60.0255 37.8869 60.1317 39.8337Z" fill="#CD3636" fill-opacity="0.75"/>
</svg>
