<svg width="574" height="100" viewBox="0 0 574 100" fill="none" xmlns="http://www.w3.org/2000/svg">
<circle cx="117" cy="50" r="50" fill="#89CB8C"/>
<circle cx="50" cy="50" r="50" fill="#3A76AD"/>
<path fill-rule="evenodd" clip-rule="evenodd" d="M83.5 87.2372C93.6324 78.0868 100 64.8463 100 50.1186C100 35.3909 93.6324 22.1504 83.5 13C73.3676 22.1504 67 35.3909 67 50.1186C67 64.8463 73.3676 78.0868 83.5 87.2372Z" fill="#306C6C"/>
<path d="M200.216 66.384C201.624 66.384 202.776 66.2773 203.672 66.064C204.611 65.808 205.357 65.488 205.912 65.104C206.467 64.6773 206.851 64.1867 207.064 63.632C207.277 63.0773 207.384 62.4587 207.384 61.776C207.384 60.3253 206.701 59.1307 205.336 58.192C203.971 57.2107 201.624 56.1653 198.296 55.056C196.845 54.544 195.395 53.968 193.944 53.328C192.493 52.6453 191.192 51.8133 190.04 50.832C188.888 49.808 187.949 48.592 187.224 47.184C186.499 45.7333 186.136 43.984 186.136 41.936C186.136 39.888 186.52 38.0533 187.288 36.432C188.056 34.768 189.144 33.36 190.552 32.208C191.96 31.056 193.667 30.1813 195.672 29.584C197.677 28.944 199.939 28.624 202.456 28.624C205.443 28.624 208.024 28.944 210.2 29.584C212.376 30.224 214.168 30.928 215.576 31.696L212.696 39.568C211.459 38.928 210.072 38.3733 208.536 37.904C207.043 37.392 205.229 37.136 203.096 37.136C200.707 37.136 198.979 37.4773 197.912 38.16C196.888 38.8 196.376 39.8027 196.376 41.168C196.376 41.9787 196.568 42.6613 196.952 43.216C197.336 43.7707 197.869 44.2827 198.552 44.752C199.277 45.1787 200.088 45.584 200.984 45.968C201.923 46.3093 202.947 46.672 204.056 47.056C206.36 47.9093 208.365 48.7627 210.072 49.616C211.779 50.4267 213.187 51.3867 214.296 52.496C215.448 53.6053 216.301 54.9067 216.856 56.4C217.411 57.8933 217.688 59.7067 217.688 61.84C217.688 65.9787 216.237 69.2 213.336 71.504C210.435 73.7653 206.061 74.896 200.216 74.896C198.253 74.896 196.483 74.768 194.904 74.512C193.325 74.2987 191.917 74.0213 190.68 73.68C189.485 73.3387 188.44 72.976 187.544 72.592C186.691 72.208 185.965 71.8453 185.368 71.504L188.184 63.568C189.507 64.2933 191.128 64.9547 193.048 65.552C195.011 66.1067 197.4 66.384 200.216 66.384ZM245.594 74.896C238.383 74.896 232.879 72.8907 229.082 68.88C225.327 64.8693 223.45 59.1733 223.45 51.792C223.45 48.1227 224.026 44.8587 225.178 42C226.33 39.0987 227.909 36.6667 229.914 34.704C231.919 32.6987 234.309 31.184 237.082 30.16C239.855 29.136 242.863 28.624 246.106 28.624C247.983 28.624 249.69 28.7733 251.226 29.072C252.762 29.328 254.106 29.648 255.258 30.032C256.41 30.3733 257.37 30.736 258.138 31.12C258.906 31.504 259.461 31.8027 259.802 32.016L256.922 40.08C255.557 39.3547 253.957 38.736 252.122 38.224C250.33 37.712 248.282 37.456 245.978 37.456C244.442 37.456 242.927 37.712 241.434 38.224C239.983 38.736 238.682 39.568 237.53 40.72C236.421 41.8293 235.525 43.28 234.842 45.072C234.159 46.864 233.818 49.04 233.818 51.6C233.818 53.648 234.031 55.568 234.458 57.36C234.927 59.1093 235.653 60.624 236.634 61.904C237.658 63.184 238.981 64.208 240.602 64.976C242.223 65.7013 244.186 66.064 246.49 66.064C247.941 66.064 249.242 65.9787 250.394 65.808C251.546 65.6373 252.57 65.4453 253.466 65.232C254.362 64.976 255.151 64.6987 255.834 64.4C256.517 64.1013 257.135 63.824 257.69 63.568L260.442 71.568C259.034 72.4213 257.05 73.1893 254.49 73.872C251.93 74.5547 248.965 74.896 245.594 74.896ZM279.862 29.136C286.518 29.136 291.617 30.3307 295.158 32.72C298.699 35.0667 300.47 38.736 300.47 43.728C300.47 46.8427 299.745 49.3813 298.294 51.344C296.886 53.264 294.838 54.7787 292.15 55.888C293.046 56.9973 293.985 58.2773 294.966 59.728C295.947 61.136 296.907 62.6293 297.846 64.208C298.827 65.744 299.766 67.3653 300.662 69.072C301.558 70.736 302.39 72.3787 303.158 74H291.958C291.147 72.5493 290.315 71.0773 289.462 69.584C288.651 68.0907 287.798 66.64 286.902 65.232C286.049 63.824 285.195 62.5013 284.342 61.264C283.489 59.984 282.635 58.832 281.782 57.808H276.854V74H266.87V30.288C269.046 29.8613 271.286 29.5627 273.59 29.392C275.937 29.2213 278.027 29.136 279.862 29.136ZM280.438 37.648C279.713 37.648 279.051 37.6693 278.454 37.712C277.899 37.7547 277.366 37.7973 276.854 37.84V49.872H279.67C283.425 49.872 286.113 49.4027 287.734 48.464C289.355 47.5253 290.166 45.9253 290.166 43.664C290.166 41.488 289.334 39.952 287.67 39.056C286.049 38.1173 283.638 37.648 280.438 37.648ZM309.558 74V29.648H339.51V38.032H319.542V46.736H337.27V54.928H319.542V65.616H340.982V74H309.558ZM348.37 74V29.648H378.322V38.032H358.354V46.736H376.082V54.928H358.354V65.616H379.794V74H348.37ZM387.183 74V29.648H417.135V38.032H397.167V46.736H414.895V54.928H397.167V65.616H418.607V74H387.183ZM455.755 74C452.896 68.9227 449.803 63.9093 446.475 58.96C443.147 54.0107 439.606 49.3387 435.851 44.944V74H425.995V29.648H434.123C435.531 31.056 437.088 32.784 438.795 34.832C440.502 36.88 442.23 39.0773 443.979 41.424C445.771 43.728 447.542 46.1387 449.291 48.656C451.04 51.1307 452.683 53.52 454.219 55.824V29.648H464.139V74H455.755ZM483.074 68.944C483.074 70.864 482.455 72.336 481.218 73.36C480.023 74.3413 478.658 74.832 477.122 74.832C475.586 74.832 474.199 74.3413 472.962 73.36C471.767 72.336 471.17 70.864 471.17 68.944C471.17 67.024 471.767 65.5733 472.962 64.592C474.199 63.568 475.586 63.056 477.122 63.056C478.658 63.056 480.023 63.568 481.218 64.592C482.455 65.5733 483.074 67.024 483.074 68.944ZM490.12 29.648H500.104V74H490.12V29.648ZM518.754 51.792C518.754 53.968 519.01 55.9307 519.522 57.68C520.077 59.4293 520.845 60.944 521.826 62.224C522.85 63.4613 524.087 64.4213 525.538 65.104C526.989 65.7867 528.653 66.128 530.53 66.128C532.365 66.128 534.007 65.7867 535.458 65.104C536.951 64.4213 538.189 63.4613 539.17 62.224C540.194 60.944 540.962 59.4293 541.474 57.68C542.029 55.9307 542.306 53.968 542.306 51.792C542.306 49.616 542.029 47.6533 541.474 45.904C540.962 44.112 540.194 42.5973 539.17 41.36C538.189 40.08 536.951 39.0987 535.458 38.416C534.007 37.7333 532.365 37.392 530.53 37.392C528.653 37.392 526.989 37.7547 525.538 38.48C524.087 39.1627 522.85 40.144 521.826 41.424C520.845 42.6613 520.077 44.176 519.522 45.968C519.01 47.7173 518.754 49.6587 518.754 51.792ZM552.61 51.792C552.61 55.5893 552.034 58.9387 550.882 61.84C549.773 64.6987 548.237 67.1093 546.274 69.072C544.311 70.992 541.965 72.4427 539.234 73.424C536.546 74.4053 533.645 74.896 530.53 74.896C527.501 74.896 524.642 74.4053 521.954 73.424C519.266 72.4427 516.919 70.992 514.914 69.072C512.909 67.1093 511.33 64.6987 510.178 61.84C509.026 58.9387 508.45 55.5893 508.45 51.792C508.45 47.9947 509.047 44.6667 510.242 41.808C511.437 38.9067 513.037 36.4747 515.042 34.512C517.09 32.5493 519.437 31.0773 522.082 30.096C524.77 29.1147 527.586 28.624 530.53 28.624C533.559 28.624 536.418 29.1147 539.106 30.096C541.794 31.0773 544.141 32.5493 546.146 34.512C548.151 36.4747 549.73 38.9067 550.882 41.808C552.034 44.6667 552.61 47.9947 552.61 51.792Z" fill="#3A76AD"/>
<path d="M48.216 66.384C49.624 66.384 50.776 66.2773 51.672 66.064C52.6107 65.808 53.3573 65.488 53.912 65.104C54.4667 64.6773 54.8507 64.1867 55.064 63.632C55.2773 63.0773 55.384 62.4587 55.384 61.776C55.384 60.3253 54.7013 59.1307 53.336 58.192C51.9707 57.2107 49.624 56.1653 46.296 55.056C44.8453 54.544 43.3947 53.968 41.944 53.328C40.4933 52.6453 39.192 51.8133 38.04 50.832C36.888 49.808 35.9493 48.592 35.224 47.184C34.4987 45.7333 34.136 43.984 34.136 41.936C34.136 39.888 34.52 38.0533 35.288 36.432C36.056 34.768 37.144 33.36 38.552 32.208C39.96 31.056 41.6667 30.1813 43.672 29.584C45.6773 28.944 47.9387 28.624 50.456 28.624C53.4427 28.624 56.024 28.944 58.2 29.584C60.376 30.224 62.168 30.928 63.576 31.696L60.696 39.568C59.4587 38.928 58.072 38.3733 56.536 37.904C55.0427 37.392 53.2293 37.136 51.096 37.136C48.7067 37.136 46.9787 37.4773 45.912 38.16C44.888 38.8 44.376 39.8027 44.376 41.168C44.376 41.9787 44.568 42.6613 44.952 43.216C45.336 43.7707 45.8693 44.2827 46.552 44.752C47.2773 45.1787 48.088 45.584 48.984 45.968C49.9227 46.3093 50.9467 46.672 52.056 47.056C54.36 47.9093 56.3653 48.7627 58.072 49.616C59.7787 50.4267 61.1867 51.3867 62.296 52.496C63.448 53.6053 64.3013 54.9067 64.856 56.4C65.4107 57.8933 65.688 59.7067 65.688 61.84C65.688 65.9787 64.2373 69.2 61.336 71.504C58.4347 73.7653 54.0613 74.896 48.216 74.896C46.2533 74.896 44.4827 74.768 42.904 74.512C41.3253 74.2987 39.9173 74.0213 38.68 73.68C37.4853 73.3387 36.44 72.976 35.544 72.592C34.6907 72.208 33.9653 71.8453 33.368 71.504L36.184 63.568C37.5067 64.2933 39.128 64.9547 41.048 65.552C43.0107 66.1067 45.4 66.384 48.216 66.384Z" fill="white"/>
<path d="M121.344 74.896C114.133 74.896 108.629 72.8907 104.832 68.88C101.077 64.8693 99.2 59.1733 99.2 51.792C99.2 48.1227 99.776 44.8587 100.928 42C102.08 39.0987 103.659 36.6667 105.664 34.704C107.669 32.6987 110.059 31.184 112.832 30.16C115.605 29.136 118.613 28.624 121.856 28.624C123.733 28.624 125.44 28.7733 126.976 29.072C128.512 29.328 129.856 29.648 131.008 30.032C132.16 30.3733 133.12 30.736 133.888 31.12C134.656 31.504 135.211 31.8027 135.552 32.016L132.672 40.08C131.307 39.3547 129.707 38.736 127.872 38.224C126.08 37.712 124.032 37.456 121.728 37.456C120.192 37.456 118.677 37.712 117.184 38.224C115.733 38.736 114.432 39.568 113.28 40.72C112.171 41.8293 111.275 43.28 110.592 45.072C109.909 46.864 109.568 49.04 109.568 51.6C109.568 53.648 109.781 55.568 110.208 57.36C110.677 59.1093 111.403 60.624 112.384 61.904C113.408 63.184 114.731 64.208 116.352 64.976C117.973 65.7013 119.936 66.064 122.24 66.064C123.691 66.064 124.992 65.9787 126.144 65.808C127.296 65.6373 128.32 65.4453 129.216 65.232C130.112 64.976 130.901 64.6987 131.584 64.4C132.267 64.1013 132.885 63.824 133.44 63.568L136.192 71.568C134.784 72.4213 132.8 73.1893 130.24 73.872C127.68 74.5547 124.715 74.896 121.344 74.896Z" fill="white"/>
</svg>
